<svg
          width="19"
          height="18"
          viewBox="0 0 19 18"
          fill="none"
          xmlns="http://www.w3.org/2000/svg"
        >
          <path
            d="M18.5858 5.29207C18.5436 4.33565 18.389 3.67813 18.1674 3.10837C17.9389 2.50359 17.5872 1.96214 17.1265 1.51202C16.6764 1.0549 16.1314 0.699693 15.5336 0.474704C14.9606 0.253148 14.3065 0.0984845 13.3501 0.0563161C12.3865 0.0105764 12.0806 0 9.63678 0C7.19294 0 6.88705 0.0105764 5.92707 0.0527448C4.97066 0.0949132 4.31313 0.249714 3.74352 0.471132C3.1386 0.699693 2.59714 1.05133 2.14703 1.51202C1.68991 1.96214 1.33484 2.50717 1.10971 3.10494C0.888157 3.67813 0.733494 4.33208 0.691326 5.28849C0.645586 6.25205 0.63501 6.55794 0.63501 9.00179C0.63501 11.4456 0.645586 11.7515 0.687755 12.7115C0.729923 13.6679 0.884723 14.3254 1.10628 14.8952C1.33484 15.5 1.68991 16.0414 2.14703 16.4916C2.59714 16.9487 3.14217 17.3039 3.73995 17.5289C4.31313 17.7504 4.96709 17.9051 5.92363 17.9473C6.88348 17.9896 7.18951 18 9.63335 18C12.0772 18 12.3831 17.9896 13.3431 17.9473C14.2995 17.9051 14.957 17.7504 15.5266 17.5289C16.7363 17.0612 17.6927 16.1048 18.1604 14.8952C18.3818 14.322 18.5366 13.6679 18.5788 12.7115C18.621 11.7515 18.6315 11.4456 18.6315 9.00179C18.6315 6.55794 18.628 6.25205 18.5858 5.29207ZM16.9649 12.6412C16.9261 13.5203 16.7785 13.995 16.6554 14.3114C16.3529 15.0956 15.7306 15.718 14.9464 16.0204C14.63 16.1435 14.1518 16.2911 13.2762 16.3297C12.3268 16.3721 12.042 16.3825 9.64035 16.3825C7.23868 16.3825 6.95037 16.3721 6.0044 16.3297C5.12532 16.2911 4.65062 16.1435 4.33415 16.0204C3.94392 15.8762 3.58872 15.6476 3.30041 15.3487C3.00152 15.0569 2.77296 14.7052 2.62873 14.315C2.50566 13.9985 2.35801 13.5203 2.31941 12.6447C2.2771 11.6953 2.26666 11.4105 2.26666 9.00879C2.26666 6.60711 2.2771 6.3188 2.31941 5.37297C2.35801 4.49389 2.50566 4.01918 2.62873 3.70271C2.77296 3.31235 3.00152 2.95728 3.30398 2.66883C3.59572 2.36995 3.94735 2.14139 4.33772 1.9973C4.65419 1.87423 5.13246 1.72657 6.00797 1.68783C6.95738 1.64567 7.24225 1.63509 9.64379 1.63509C12.049 1.63509 12.3338 1.64567 13.2797 1.68783C14.1588 1.72657 14.6335 1.87423 14.95 1.9973C15.3402 2.14139 15.6954 2.36995 15.9837 2.66883C16.2826 2.96072 16.5112 3.31235 16.6554 3.70271C16.7785 4.01918 16.9261 4.49732 16.9649 5.37297C17.007 6.32237 17.0176 6.60711 17.0176 9.00879C17.0176 11.4105 17.007 11.6918 16.9649 12.6412Z"
            fill="#F52F53"
          />
          <path
            d="M9.63678 4.37782C7.08401 4.37782 5.01282 6.44888 5.01282 9.00179C5.01282 11.5547 7.08401 13.6258 9.63678 13.6258C12.1897 13.6258 14.2607 11.5547 14.2607 9.00179C14.2607 6.44888 12.1897 4.37782 9.63678 4.37782ZM9.63678 12.0012C7.98067 12.0012 6.63733 10.658 6.63733 9.00179C6.63733 7.34555 7.98067 6.00234 9.63678 6.00234C11.293 6.00234 12.6362 7.34555 12.6362 9.00179C12.6362 10.658 11.293 12.0012 9.63678 12.0012Z"
            fill="#F52F53"
          />
          <path
            d="M15.5232 4.195C15.5232 4.79113 15.0399 5.27449 14.4436 5.27449C13.8475 5.27449 13.3641 4.79113 13.3641 4.195C13.3641 3.59874 13.8475 3.11552 14.4436 3.11552C15.0399 3.11552 15.5232 3.59874 15.5232 4.195Z"
            fill="#F52F53"
          />
        </svg>