<svg width="24" height="36" viewBox="0 0 24 36" fill="none" xmlns="http://www.w3.org/2000/svg">
<path d="M17.5404 20.8357C17.2558 20.9119 16.9801 21.0094 16.7139 21.1249C16.9352 20.1815 17.0789 19.2101 17.1398 18.2187C17.328 18.2365 17.5163 18.2455 17.7042 18.2455C19.2728 18.2455 20.8083 17.6295 21.9413 16.4965C23.4451 14.9926 24.0382 12.7798 23.4888 10.7213C23.4024 10.3975 23.1494 10.1445 22.8255 10.0581C20.7674 9.50909 18.5543 10.1019 17.0504 11.6056C16.8423 11.8137 16.6525 12.0358 16.4798 12.2686C16.2437 11.4534 15.9497 10.6556 15.5974 9.88409C17.144 9.13353 18.3195 7.73907 18.772 6.05022C19.3225 3.99583 18.7295 1.78293 17.2247 0.274982C16.988 0.0378113 16.6426 -0.0550722 16.3187 0.0322867C14.2615 0.585747 12.6415 2.20568 12.0911 4.25997C11.554 6.26464 12.106 8.42015 13.5315 9.92435C14.6889 12.1354 15.3012 14.6272 15.3012 17.1404C15.3012 24.9866 9.4394 31.6327 1.66605 32.5998C1.15294 32.6638 0.788621 33.1315 0.852478 33.6446C0.911466 34.1185 1.31483 34.4655 1.78047 34.4655C1.81904 34.4655 1.85799 34.4631 1.89723 34.4583C3.68345 34.236 5.37922 33.7458 6.9471 33.0317C8.01703 34.8631 9.9937 36 12.1124 36C14.2393 36 16.2232 34.8546 17.2904 33.0106C17.4583 32.7204 17.4583 32.3628 17.2904 32.0726C16.2771 30.3217 14.4366 29.2013 12.4325 29.0927C13.145 28.334 13.7897 27.5126 14.3579 26.638C15.3674 27.3416 16.5702 27.7185 17.7929 27.7185C18.3064 27.7185 18.8232 27.6522 19.3304 27.5164C21.3847 26.966 23.0047 25.3461 23.5582 23.2888C23.6454 22.9651 23.5527 22.6196 23.3155 22.3828C21.8077 20.8781 19.5948 20.2849 17.5404 20.8357ZM18.3746 12.9299C19.2733 12.0311 20.5406 11.6063 21.7872 11.7596C21.9406 13.0059 21.5157 14.2738 20.617 15.1723C19.7184 16.0709 18.4505 16.4957 17.2044 16.3425C17.051 15.0964 17.476 13.8284 18.3746 12.9299ZM13.8999 4.7448C14.2289 3.51737 15.1145 2.51532 16.2703 2.02516C17.0262 3.02758 17.2922 4.33806 16.9632 5.56567C16.6342 6.79329 15.7486 7.79525 14.5929 8.28541C13.837 7.28298 13.571 5.97251 13.8999 4.7448ZM15.353 32.5418C14.5804 33.5314 13.3834 34.1275 12.1125 34.1275C10.8416 34.1275 9.64464 33.5315 8.87199 32.5418C9.64464 31.5523 10.8416 30.9561 12.1125 30.9561C13.3834 30.9561 14.5804 31.5523 15.353 32.5418ZM18.8458 25.7078C17.6182 26.0367 16.3078 25.7708 15.3053 25.0149C15.7954 23.859 16.7975 22.9734 18.025 22.6446C19.253 22.3157 20.5632 22.5817 21.5655 23.3375C21.0754 24.4932 20.0734 25.3788 18.8458 25.7078Z" fill="url(#paint0_linear)"/>
<defs>
<linearGradient id="paint0_linear" x1="23.6903" y1="18" x2="0.845215" y2="18" gradientUnits="userSpaceOnUse">
<stop stop-color="#B76D28"/>
<stop offset="1" stop-color="#FCC201"/>
</linearGradient>
</defs>
</svg>
