<svg width="7" height="9" viewBox="0 0 7 9" fill="none" xmlns="http://www.w3.org/2000/svg">
<path d="M1.08 9V7.716H0.12V6.552H1.08V5.616H0.12V4.128H1.08V0.431999H3.816C4.92 0.431999 5.724 0.655999 6.228 1.104C6.74 1.552 6.996 2.168 6.996 2.952C6.996 3.416 6.892 3.852 6.684 4.26C6.476 4.668 6.128 4.996 5.64 5.244C5.16 5.492 4.504 5.616 3.672 5.616H2.892V6.552H4.74V7.716H2.892V9H1.08ZM3.492 4.128C4.004 4.128 4.408 4.04 4.704 3.864C5.008 3.688 5.16 3.404 5.16 3.012C5.16 2.284 4.68 1.92 3.72 1.92H2.892V4.128H3.492Z" fill="#EEB609"/>
</svg>
