<svg width="20" height="26" viewBox="0 0 20 26" fill="none" xmlns="http://www.w3.org/2000/svg">
<path d="M3.53888 26V21.104H0.406875V18.764H3.53888V15.56H0.406875V12.824H3.53888V0.295998H10.3069C13.4509 0.295998 15.7789 0.931999 17.2909 2.204C18.8269 3.476 19.5949 5.324 19.5949 7.748C19.5949 10.196 18.7669 12.116 17.1109 13.508C15.4549 14.876 13.0189 15.56 9.80288 15.56H6.77888V18.764H12.7189V21.104H6.77888V26H3.53888ZM9.33488 12.824C11.5189 12.824 13.2109 12.464 14.4109 11.744C15.6349 11.024 16.2469 9.728 16.2469 7.856C16.2469 6.224 15.7429 5.012 14.7349 4.22C13.7269 3.428 12.1549 3.032 10.0189 3.032H6.77888V12.824H9.33488Z" fill="black"/>
</svg>
