<svg
          width="21"
          height="14"
          viewBox="0 0 21 14"
          fill="none"
          xmlns="http://www.w3.org/2000/svg"
        >
          <path
            fill-rule="evenodd"
            clip-rule="evenodd"
            d="M18.4526 0.428213C19.309 0.658872 19.9844 1.33407 20.2149 2.19065C20.6432 3.75522 20.6268 7.01648 20.6268 7.01648C20.6268 7.01648 20.6268 10.2611 20.215 11.8258C19.9844 12.6823 19.3092 13.3576 18.4526 13.5881C16.8879 14 10.6291 14 10.6291 14C10.6291 14 4.38669 14 2.80564 13.5718C1.94906 13.3411 1.27387 12.6658 1.04321 11.8094C0.63147 10.2611 0.63147 7 0.63147 7C0.63147 7 0.63147 3.75522 1.04321 2.19065C1.27371 1.33422 1.96554 0.642396 2.80549 0.41189C4.37021 0 10.629 0 10.629 0C10.629 0 16.8879 0 18.4526 0.428213ZM13.8408 7.0001L8.6362 9.99776V4.00244L13.8408 7.0001Z"
            fill="#F52F53"
          />
        </svg>