<svg
              
              width="40"
              height="40"
              viewBox="0 0 40 40"
              fill="none"
              xmlns="http://www.w3.org/2000/svg"
            >
              <circle cx="20" cy="20" r="20" fill="#EEB609" />
              <path
                d="M11 17.3475C11 15.7749 12.2749 14.5 13.8475 14.5V14.5C14.8694 14.5 15.8129 13.9525 16.3199 13.0652L16.7 12.4C16.9174 12.0196 17.0261 11.8294 17.1621 11.6755C17.4481 11.3519 17.8312 11.1295 18.2541 11.0418C18.4552 11 18.6743 11 19.1125 11H21.8875C22.3257 11 22.5448 11 22.7459 11.0418C23.1688 11.1295 23.5519 11.3519 23.8379 11.6755C23.9739 11.8294 24.0826 12.0196 24.3 12.4L24.6801 13.0653C25.1871 13.9525 26.1306 14.5 27.1525 14.5V14.5C28.7251 14.5 30 15.7749 30 17.3475V23.7C30 25.3802 30 26.2202 29.673 26.862C29.3854 27.4265 28.9265 27.8854 28.362 28.173C27.7202 28.5 26.8802 28.5 25.2 28.5H15.8C14.1198 28.5 13.2798 28.5 12.638 28.173C12.0735 27.8854 11.6146 27.4265 11.327 26.862C11 26.2202 11 25.3802 11 23.7V17.3475Z"
                stroke="white"
                stroke-width="1.8"
                stroke-linecap="round"
                stroke-linejoin="round"
              />
              <circle
                cx="20.5"
                cy="21"
                r="4"
                stroke="white"
                stroke-width="1.8"
              />
            </svg>