<svg
          width="10"
          height="18"
          viewBox="0 0 10 18"
          fill="none"
          xmlns="http://www.w3.org/2000/svg"
        >
          <path
            d="M9.27819 0.0037452L7.00588 0C4.45302 0 2.80326 1.73871 2.80326 4.42982V6.47227H0.518553C0.321128 6.47227 0.161255 6.63668 0.161255 6.83949V9.79876C0.161255 10.0016 0.32131 10.1658 0.518553 10.1658H2.80326V17.633C2.80326 17.8358 2.96313 18 3.16055 18H6.14144C6.33887 18 6.49874 17.8356 6.49874 17.633V10.1658H9.17009C9.36751 10.1658 9.52739 10.0016 9.52739 9.79876L9.52848 6.83949C9.52848 6.74211 9.49074 6.64886 9.42384 6.57994C9.35694 6.51103 9.26579 6.47227 9.171 6.47227H6.49874V4.74086C6.49874 3.90868 6.69179 3.48622 7.74709 3.48622L9.27782 3.48566C9.47507 3.48566 9.63494 3.32124 9.63494 3.11863V0.370775C9.63494 0.168347 9.47525 0.00411972 9.27819 0.0037452Z"
            fill="#F52F53"
          />
        </svg>