<svg width="23" height="36" viewBox="0 0 23 36" fill="none" xmlns="http://www.w3.org/2000/svg">
<path d="M6.14982 20.8357C6.43436 20.9119 6.71011 21.0094 6.97631 21.1249C6.75496 20.1815 6.61133 19.2101 6.55038 18.2187C6.36217 18.2365 6.17388 18.2455 5.98596 18.2455C4.41743 18.2455 2.88186 17.6295 1.74891 16.4965C0.245085 14.9926 -0.347982 12.7798 0.201357 10.7213C0.287781 10.3975 0.540775 10.1445 0.864651 10.0581C2.92278 9.50909 5.13587 10.1019 6.63979 11.6056C6.84785 11.8137 7.03773 12.0358 7.21039 12.2686C7.44653 11.4534 7.74044 10.6556 8.09278 9.88409C6.54616 9.13353 5.3707 7.73907 4.91818 6.05022C4.36771 3.99583 4.96069 1.78293 6.46545 0.274982C6.70215 0.0378113 7.04756 -0.0550722 7.37144 0.0322867C9.42872 0.585747 11.0487 2.20568 11.5991 4.25997C12.1362 6.26464 11.5841 8.42015 10.1587 9.92435C9.00129 12.1354 8.38894 14.6272 8.38894 17.1404C8.38894 24.9866 14.2508 31.6327 22.0241 32.5998C22.5372 32.6638 22.9016 33.1315 22.8377 33.6446C22.7787 34.1186 22.3754 34.4655 21.9097 34.4655C21.8711 34.4655 21.8322 34.4631 21.793 34.4583C20.0067 34.236 18.311 33.7458 16.7431 33.0317C15.6732 34.8631 13.6965 36 11.5778 36C9.45092 36 7.46694 34.8546 6.39981 33.0106C6.23193 32.7204 6.23193 32.3628 6.39981 32.0726C7.4131 30.3217 9.25354 29.2013 11.2576 29.0927C10.5452 28.334 9.90044 27.5126 9.33228 26.638C8.32274 27.3416 7.11994 27.7185 5.89729 27.7185C5.38381 27.7185 4.86696 27.6522 4.35975 27.5164C2.30546 26.966 0.685436 25.3461 0.131977 23.2888C0.0448055 22.9651 0.137503 22.6196 0.374672 22.3828C1.88253 20.8781 4.09543 20.2849 6.14982 20.8357ZM5.31555 12.9299C4.41687 12.0311 3.14956 11.6063 1.90294 11.7596C1.74957 13.0059 2.17447 14.2738 3.07315 15.1723C3.97174 16.0709 5.23971 16.4957 6.48577 16.3425C6.63914 15.0964 6.21424 13.8284 5.31555 12.9299ZM9.79024 4.7448C9.46131 3.51737 8.57564 2.51532 7.41984 2.02516C6.66395 3.02758 6.39804 4.33806 6.72696 5.56567C7.05599 6.79329 7.94156 7.79525 9.09727 8.28541C9.85316 7.28298 10.1192 5.97251 9.79024 4.7448ZM8.33716 32.5418C9.10981 33.5314 10.3068 34.1275 11.5777 34.1275C12.8485 34.1275 14.0455 33.5315 14.8182 32.5418C14.0455 31.5523 12.8485 30.9561 11.5777 30.9561C10.3068 30.9561 9.10981 31.5523 8.33716 32.5418ZM4.8444 25.7078C6.07201 26.0367 7.38239 25.7708 8.38491 25.0149C7.89475 23.859 6.89269 22.9734 5.66518 22.6446C4.43719 22.3157 3.12699 22.5817 2.12466 23.3375C2.61482 24.4933 3.61678 25.3788 4.8444 25.7078Z" fill="url(#paint0_linear)"/>
<defs>
<linearGradient id="paint0_linear" x1="-0.000103146" y1="18" x2="22.845" y2="18" gradientUnits="userSpaceOnUse">
<stop stop-color="#B76D28"/>
<stop offset="1" stop-color="#FCC201"/>
</linearGradient>
</defs>
</svg>
