<svg
          width="21"
          height="12"
          viewBox="0 0 21 12"
          fill="none"
          xmlns="http://www.w3.org/2000/svg"
        >
          <path
            fill-rule="evenodd"
            clip-rule="evenodd"
            d="M19.6868 0.832739C19.8363 0.362988 19.6868 0.021352 19.0249 0.021352H16.8256C16.2705 0.021352 16.0142 0.320285 15.8648 0.640569C15.8648 0.640569 14.7331 3.37366 13.153 5.14591C12.6406 5.65836 12.4057 5.82918 12.1281 5.82918C11.9787 5.82918 11.7865 5.65836 11.7865 5.18861V0.811387C11.7865 0.256227 11.6157 0 11.1459 0H7.68683C7.3452 0 7.13168 0.256226 7.13168 0.512454C7.13168 1.04626 7.92171 1.17438 8.00712 2.66904V5.91459C8.00712 6.61922 7.87901 6.74733 7.60143 6.74733C6.8541 6.74733 5.03915 3.99288 3.95018 0.854093C3.73666 0.234875 3.52313 0 2.96797 0H0.747331C0.106762 0 0 0.298931 0 0.619216C0 1.19573 0.747332 4.09964 3.48043 7.94306C5.29538 10.5694 7.87901 11.9786 10.2064 11.9786C11.6157 11.9786 11.7865 11.6584 11.7865 11.1246V9.13879C11.7865 8.49822 11.9146 8.39146 12.363 8.39146C12.6833 8.39146 13.2598 8.56228 14.5623 9.82207C16.0569 11.3167 16.3132 12 17.1459 12H19.3452C19.9858 12 20.2847 11.6797 20.1139 11.0605C19.9217 10.4413 19.1957 9.54448 18.2562 8.47687C17.7438 7.879 16.9751 7.21708 16.7402 6.8968C16.4199 6.46975 16.5053 6.29893 16.7402 5.91459C16.7189 5.91459 19.4093 2.11388 19.6868 0.832739Z"
            fill="#F52F53"
          />
        </svg>